<?xml version="1.0" encoding="UTF-8"?><svg id="Calque_2" xmlns="http://www.w3.org/2000/svg" viewBox="0 0 205.74 85.04"><g id="Calque_1-2"><circle cx="42.52" cy="42.52" r="42.52" transform="translate(-16.53 31.15) rotate(-34.1)" style="fill:#e86623;"/><path d="m26.97,29.09c0,2.54-2.06,4.6-4.6,4.6s-4.59-2.06-4.59-4.6,2.06-4.6,4.59-4.6,4.6,2.06,4.6,4.6Z" style="fill:#fff;"/><rect x="48.61" y="36.09" width="5" height="24" style="fill:#fff;"/><rect x="16.11" y="36.09" width="5" height="24" style="fill:#fff;"/><rect x="11.11" y="36.09" width="10" height="5" style="fill:#fff;"/><rect x="24.11" y="36.09" width="5" height="24" style="fill:#fff;"/><rect x="24.11" y="36.09" width="9" height="5" style="fill:#fff;"/><rect x="62.61" y="37.09" width="5" height="23" style="fill:#fff;"/><path d="m45.91,44.04c0-4.62-1.82-7.95-9.4-7.95h-.63l-.02,5h.42c3.02,0,4.26.73,4.26,3.53,0,2.73-1.3,3.47-4.19,3.47h-4.24v4.27h3.53s4.37,8,4.37,8h5.65s-4.81-8.63-4.81-8.63c4-1.27,5.05-4.37,5.05-7.69Z" style="fill:#fff;"/><rect x="56.11" y="36.09" width="18" height="5" style="fill:#fff;"/><text transform="translate(89.56 61.47)" style="fill:#ff4c00; font-family:ArialMT, Arial; font-size:6px;"><tspan x="0" y="0" style="letter-spacing:-.06em;">CNRS -</tspan><tspan x="18.69" y="0" style="letter-spacing:-.07em;"> </tspan><tspan x="19.91" y="0" style="letter-spacing:-.17em;">T</tspan><tspan x="22.58" y="0" style="letter-spacing:-.06em;">oulouse IN</tspan><tspan x="47.97" y="0" style="letter-spacing:-.07em;">P</tspan><tspan x="51.53" y="0" xml:space="preserve" style="letter-spacing:-.06em;"> - UT3 - U</tspan><tspan x="74.56" y="0" style="letter-spacing:-.07em;">T</tspan><tspan x="77.79" y="0" xml:space="preserve" style="letter-spacing:-.06em;"> Capitole - UT2</tspan></text><text transform="translate(89.68 41.96)" style="fill:#1e5779; font-family:ArialMT, Arial; font-size:9px;"><tspan x="0" y="0">Institut de Recherche </tspan><tspan x="0" y="10.8">en Informatique de</tspan><tspan x="75.05" y="10.8" style="letter-spacing:-.02em;"> </tspan><tspan x="77.39" y="10.8" style="letter-spacing:-.11em;">T</tspan><tspan x="81.89" y="10.8">oulouse</tspan></text></g></svg>